<?xml version="1.0" standalone="no"?>
<!DOCTYPE svg PUBLIC "-//W3C//DTD SVG 1.1//EN"
"http://www.w3.org/Graphics/SVG/1.1/DTD/svg11.dtd">
<svg width="100%%" height="100%%" viewBox="0 0 1.0 1.0"
xmlns="http://www.w3.org/2000/svg" version="1.1">
<polyline fill="#e5161a" stroke="#000000" stroke-width="0.002"
points="0.185806,0.335389 0.490037,0.337117 0.494377,0.693045 0.188173,0.696337 0.187315,0.565546 0.321783,0.562591 0.314572,0.432787 0.186445,0.432787 0.185806,0.335389 "/>

<polyline fill="#7b16e5" stroke="#000000" stroke-width="0.002"
points="0.787039,0.120052 0.184456,0.129579 0.185806,0.335389 0.490037,0.337117 0.494377,0.693045 0.188173,0.696337 0.189648,0.921264 0.811175,0.895095 0.787039,0.120052 "/>

<polyline fill="#16e5e3" stroke="#000000" stroke-width="0.002"
points="0.186445,0.432787 0.314572,0.432787 0.321783,0.562591 0.187315,0.565546 0.186445,0.432787 "/>

<polyline fill="none" stroke="#000000" stroke-width="0.002"
points="0.185806,0.335389 0.490037,0.337117 0.494377,0.693045 0.188173,0.696337 0.187315,0.565546 0.321783,0.562591 0.314572,0.432787 0.186445,0.432787 0.185806,0.335389 "/>

<polyline fill="none" stroke="#000000" stroke-width="0.002"
points="0.787039,0.120052 0.184456,0.129579 0.185806,0.335389 0.490037,0.337117 0.494377,0.693045 0.188173,0.696337 0.189648,0.921264 0.811175,0.895095 0.787039,0.120052 "/>

<polyline fill="none" stroke="#000000" stroke-width="0.002"
points="0.186445,0.432787 0.314572,0.432787 0.321783,0.562591 0.187315,0.565546 0.186445,0.432787 "/>

</svg>