<?xml version="1.0" standalone="no"?>
<!DOCTYPE svg PUBLIC "-//W3C//DTD SVG 1.1//EN"
"http://www.w3.org/Graphics/SVG/1.1/DTD/svg11.dtd">
<svg width="100%" height="100%" viewBox="0 0 700 700"
xmlns="http://www.w3.org/2000/svg" version="1.1">
<line stroke="black" 
x1="53" y1="21" x2="650" y2="213" />
<line stroke="black" 
x1="171" y1="37" x2="282" y2="206" />
<line stroke="black" 
x1="82" y1="57" x2="153" y2="350" /><line stroke="black" 
x1="38" y1="18" x2="52" y2="366" /><line stroke="black" 
x1="286" y1="156" x2="604" y2="132" /><line stroke="black" 
x1="556" y1="209" x2="553" y2="371" /><line stroke="black" 
x1="2" y1="101" x2="262" y2="272" /><line stroke="black" 
x1="159" y1="156" x2="631" y2="206" /><line stroke="black" 
x1="624" y1="268" x2="168" y2="230" /><line stroke="black" 
x1="621" y1="2" x2="588" y2="171" /><line stroke="black" 
x1="94" y1="226" x2="519" y2="236" /><line stroke="black" 
x1="276" y1="1" x2="253" y2="87" /><line stroke="black" 
x1="42" y1="336" x2="436" y2="32" /><line stroke="black" 
x1="530" y1="271" x2="437" y2="318" /><line stroke="black" 
x1="455" y1="56" x2="453" y2="208" /><line stroke="black" 
x1="574" y1="12" x2="514" y2="286" /><line stroke="black" 
x1="364" y1="33" x2="467" y2="253" /><line stroke="black" 
x1="95" y1="108" x2="38" y2="372" /><line stroke="black" 
x1="609" y1="114" x2="409" y2="385" /><line stroke="black" 
x1="103" y1="85" x2="459" y2="144" /><line stroke="black" 
x1="70" y1="354" x2="344" y2="94" /><line stroke="black" 
x1="516" y1="31" x2="291" y2="354" /><line stroke="black" 
x1="575" y1="304" x2="644" y2="67" /><line stroke="black" 
x1="496" y1="1" x2="301" y2="82" /><line stroke="black" 
x1="656" y1="122" x2="267" y2="44" /></svg>
